<?xml version="1.0" standalone="no"?>
<!DOCTYPE svg PUBLIC "-//W3C//DTD SVG 20010904//EN"
 "http://www.w3.org/TR/2001/REC-SVG-20010904/DTD/svg10.dtd">
<svg version="1.0" xmlns="http://www.w3.org/2000/svg"
 width="96.000000pt" height="96.000000pt" viewBox="0 0 96.000000 96.000000"
 preserveAspectRatio="xMidYMid meet">
<metadata>
Created by potrace 1.14, written by Peter Selinger 2001-2017
</metadata>
<g transform="translate(0.000000,96.000000) scale(0.100000,-0.100000)"
fill="#000000" stroke="none">
<path d="M86 917 c4 -51 11 -83 24 -106 6 -12 8 -21 4 -21 -4 0 1 -9 11 -20
10 -11 15 -20 11 -20 -4 0 7 -20 24 -44 l30 -45 -21 -53 c-11 -29 -24 -55 -29
-58 -13 -8 -64 -112 -67 -137 -2 -13 1 -23 6 -23 7 0 7 -9 1 -25 -6 -17 -6
-25 1 -25 5 0 9 -6 7 -12 -4 -21 23 -89 33 -83 5 4 10 1 10 -4 1 -6 3 -15 4
-21 1 -5 3 -14 4 -20 1 -10 58 -44 75 -45 5 0 17 -14 26 -30 19 -34 81 -81
125 -93 52 -15 204 -6 226 14 10 9 19 13 19 8 1 -5 10 8 21 29 11 21 24 35 28
32 5 -2 11 4 14 16 3 11 19 25 35 31 27 10 65 53 63 70 0 5 8 24 19 44 22 37
29 92 15 114 -4 7 -9 26 -10 42 -2 16 -12 48 -24 71 -32 66 -59 141 -54 155 3
6 10 12 18 12 16 0 195 186 195 204 0 8 -9 12 -22 10 -125 -17 -220 -61 -274
-128 l-29 -34 -120 3 c-66 2 -126 4 -133 5 -7 0 -16 8 -19 18 -30 79 -170 202
-231 202 -15 0 -18 -7 -16 -33z"/>
</g>
</svg>
